<?xml version="1.0" encoding="UTF-8" standalone="no"?>
<!-- Created with Inkscape (http://www.inkscape.org/) -->

<svg
   xmlns:dc="http://purl.org/dc/elements/1.1/"
   xmlns:cc="http://creativecommons.org/ns#"
   xmlns:rdf="http://www.w3.org/1999/02/22-rdf-syntax-ns#"
   xmlns:svg="http://www.w3.org/2000/svg"
   xmlns="http://www.w3.org/2000/svg"
   xmlns:xlink="http://www.w3.org/1999/xlink"
   xmlns:sodipodi="http://sodipodi.sourceforge.net/DTD/sodipodi-0.dtd"
   xmlns:inkscape="http://www.inkscape.org/namespaces/inkscape"
   width="442"
   height="108"
   id="svg4045"
   version="1.1"
   inkscape:version="0.48.4 r9939"
   sodipodi:docname="logo-main.svg">
  <defs
     id="defs4047">
    <linearGradient
       id="linearGradient3859">
      <stop
         style="stop-color:#3b0679;stop-opacity:1;"
         offset="0"
         id="stop3861" />
      <stop
         style="stop-color:#8627f4;stop-opacity:1;"
         offset="1"
         id="stop3863" />
    </linearGradient>
    <linearGradient
       id="linearGradient5329">
      <stop
         style="stop-color:#eb001c;stop-opacity:1;"
         offset="0"
         id="stop5331" />
      <stop
         id="stop5337"
         offset="1"
         style="stop-color:#970a17;stop-opacity:1;" />
    </linearGradient>
    <linearGradient
       id="linearGradient5355">
      <stop
         style="stop-color:#f3ed1c;stop-opacity:1;"
         offset="0"
         id="stop5357" />
      <stop
         style="stop-color:#b67d0a;stop-opacity:1;"
         offset="1"
         id="stop5359" />
    </linearGradient>
    <linearGradient
       id="linearGradient5339">
      <stop
         style="stop-color:#6df513;stop-opacity:1;"
         offset="0"
         id="stop5341" />
      <stop
         style="stop-color:#0f7d3c;stop-opacity:1;"
         offset="1"
         id="stop5343" />
    </linearGradient>
    <linearGradient
       id="linearGradient4027">
      <stop
         style="stop-color:#927c64;stop-opacity:1;"
         offset="0"
         id="stop4029" />
      <stop
         style="stop-color:#352d31;stop-opacity:1;"
         offset="1"
         id="stop4031" />
    </linearGradient>
    <linearGradient
       inkscape:collect="always"
       xlink:href="#linearGradient5347"
       id="linearGradient3971"
       gradientUnits="userSpaceOnUse"
       x1="170.1012"
       y1="-157.39117"
       x2="221.01527"
       y2="-157.39117"
       gradientTransform="translate(0,29.698485)" />
    <linearGradient
       id="linearGradient5347">
      <stop
         style="stop-color:#23a8e5;stop-opacity:1;"
         offset="0"
         id="stop5349" />
      <stop
         style="stop-color:#153f79;stop-opacity:1;"
         offset="1"
         id="stop5351" />
    </linearGradient>
    <linearGradient
       inkscape:collect="always"
       xlink:href="#linearGradient5347"
       id="linearGradient3040"
       gradientUnits="userSpaceOnUse"
       gradientTransform="translate(830.29924,71.270567)"
       x1="170.1012"
       y1="-157.39117"
       x2="221.01527"
       y2="-157.39117" />
    <linearGradient
       inkscape:collect="always"
       xlink:href="#linearGradient3859"
       id="linearGradient3043"
       gradientUnits="userSpaceOnUse"
       x1="-1051.5815"
       y1="-141.65608"
       x2="-1000.6675"
       y2="-141.65608" />
    <linearGradient
       inkscape:collect="always"
       xlink:href="#linearGradient5339"
       id="linearGradient3046"
       gradientUnits="userSpaceOnUse"
       gradientTransform="translate(830.29913,71.270567)"
       x1="114.56577"
       y1="-213.1936"
       x2="165.47984"
       y2="-213.1936" />
    <linearGradient
       inkscape:collect="always"
       xlink:href="#linearGradient5355"
       id="linearGradient3049"
       gradientUnits="userSpaceOnUse"
       gradientTransform="translate(830.29911,71.270567)"
       x1="114.56577"
       y1="-157.39117"
       x2="165.47984"
       y2="-157.39117" />
    <linearGradient
       inkscape:collect="always"
       xlink:href="#linearGradient5329"
       id="linearGradient3052"
       gradientUnits="userSpaceOnUse"
       gradientTransform="translate(830.29913,71.270567)"
       x1="114.54679"
       y1="-101.974"
       x2="165.46086"
       y2="-101.974" />
  </defs>
  <sodipodi:namedview
     id="base"
     pagecolor="#ffffff"
     bordercolor="#666666"
     borderopacity="1.0"
     inkscape:pageopacity="0.0"
     inkscape:pageshadow="2"
     inkscape:zoom="0.70000001"
     inkscape:cx="384.50556"
     inkscape:cy="-290.62779"
     inkscape:document-units="px"
     inkscape:current-layer="layer1"
     showgrid="false"
     showguides="true"
     inkscape:guide-bbox="true"
     fit-margin-top="0"
     fit-margin-left="0"
     fit-margin-right="0"
     fit-margin-bottom="0"
     inkscape:window-width="1296"
     inkscape:window-height="897"
     inkscape:window-x="2443"
     inkscape:window-y="46"
     inkscape:window-maximized="0"
     borderlayer="true">
    <sodipodi:guide
       orientation="1,0"
       position="440.93708,981.61464"
       id="guide4142" />
    <sodipodi:guide
       orientation="0,1"
       position="181.65136,108.04321"
       id="guide4144" />
  </sodipodi:namedview>
  <metadata
     id="metadata4050">
    <rdf:RDF>
      <cc:Work
         rdf:about="">
        <dc:format>image/svg+xml</dc:format>
        <dc:type
           rdf:resource="http://purl.org/dc/dcmitype/StillImage" />
        <dc:title />
      </cc:Work>
    </rdf:RDF>
  </metadata>
  <g
     inkscape:label="Layer 1"
     inkscape:groupmode="layer"
     id="layer1"
     transform="translate(-1.2057808,-943.83396)">
    <g
       id="g3841">
      <rect
         transform="matrix(0,1,-1,0,0,0)"
         y="-56.160461"
         x="944.84595"
         height="50.91407"
         width="50.91407"
         id="rect4807-7-1-8"
         style="fill:url(#linearGradient3052);fill-opacity:1;stroke:none" />
      <rect
         transform="matrix(0,1,-1,0,0,0)"
         y="-111.57764"
         x="944.86493"
         height="50.91407"
         width="50.91407"
         id="rect4807-3-4-9-6"
         style="fill:url(#linearGradient3049);fill-opacity:1;stroke:none" />
      <rect
         transform="matrix(0,1,-1,0,0,0)"
         y="-167.38008"
         x="944.86493"
         height="50.91407"
         width="50.91407"
         id="rect4807-9-9-3-2"
         style="fill:url(#linearGradient3046);fill-opacity:1;stroke:none" />
      <rect
         transform="matrix(0,-1,-1,0,0,0)"
         y="-167.11311"
         x="-1051.5815"
         height="50.91407"
         width="50.91407"
         id="rect4807-4-7-5-6"
         style="fill:url(#linearGradient3043);fill-opacity:1;stroke:none" />
      <rect
         transform="matrix(0,1,-1,0,0,0)"
         y="-111.57764"
         x="1000.4004"
         height="50.91407"
         width="50.91407"
         id="rect4807-8-5-9-3"
         style="fill:url(#linearGradient3040);fill-opacity:1;stroke:none" />
    </g>
    <g
       style="font-size:63.27826691px;font-style:normal;font-variant:normal;font-weight:normal;font-stretch:normal;line-height:125%;letter-spacing:0px;word-spacing:0px;fill:#fdf2e1;fill-opacity:1;stroke:none;font-family:Marvel;-inkscape-font-specification:Marvel"
       id="text3869"
       transform="translate(0,1.0101525)">
      <path
         d="m 228.99998,990.58856 -3.35375,0 0,-28.5385 -5.56848,0 0,-3.10063 5.63176,0 0,-4.93571 c -1e-5,-1.47645 0.18983,-2.74202 0.56951,-3.79669 0.37966,-1.0546 0.88588,-1.89831 1.51867,-2.53113 0.67496,-0.67493 1.45539,-1.16006 2.3413,-1.4554 0.92807,-0.33744 1.91943,-0.50618 2.97408,-0.50623 l 1.13901,0 0,3.41703 -0.82262,0 c -1.18121,4e-5 -2.23585,0.31643 -3.16391,0.94917 -0.88591,0.63282 -1.32886,1.79292 -1.32885,3.48031 l 0,5.37865 6.07472,0 0,3.10063 -6.01144,0 0,28.5385"
         id="path4257"
         inkscape:connector-curvature="0" />
      <path
         d="m 241.41241,985.90597 c -0.50623,-1.05463 -0.80153,-2.10927 -0.8859,-3.16391 -0.0844,-1.09682 -0.12656,-2.21473 -0.12655,-3.35375 l 0,-20.43888 3.29047,0 0,22.40051 c -1e-5,1.09683 0.14764,2.06709 0.44294,2.9108 0.33748,0.80153 0.75933,1.47649 1.26557,2.0249 0.5484,0.54842 1.16009,0.97027 1.83507,1.26557 0.67496,0.2953 1.37102,0.44295 2.08818,0.44294 1.34992,10e-6 2.69986,-0.23201 4.04981,-0.69606 1.3921,-0.50622 2.46783,-1.03354 3.22719,-1.58195 l 0,-26.76671 3.22719,0 0,28.47522 1.39213,1.32884 -2.27802,2.27802 -1.89835,-1.89835 c -1.2234,0.67497 -2.53115,1.1601 -3.92325,1.4554 -1.39214,0.33749 -2.63661,0.50623 -3.73342,0.50623 -1.51869,0 -3.01627,-0.37967 -4.49276,-1.13901 -1.4765,-0.80152 -2.6366,-2.15146 -3.4803,-4.04981"
         id="path4259"
         inkscape:connector-curvature="0" />
      <path
         d="m 286.38052,963.56874 c 0.5062,1.05467 0.8015,2.1304 0.88589,3.22719 0.0843,1.05466 0.12654,2.15149 0.12656,3.29047 l 0,20.50216 -3.35375,0 0,-22.46378 c -2e-5,-2.15144 -0.56952,-3.79667 -1.70851,-4.93571 -1.13903,-1.13898 -2.42568,-1.70848 -3.85998,-1.70851 -0.80153,3e-5 -1.83508,0.12658 -3.10063,0.37967 -1.22339,0.25314 -2.61551,0.88592 -4.17637,1.89835 l 0,26.82998 -3.22719,0 0,-28.5385 -1.39212,-1.32884 2.27802,-2.27802 1.89835,1.89835 c 2.32019,-1.30772 4.51383,-1.96159 6.58094,-1.96163 1.89833,4e-5 3.67012,0.4008 5.31537,1.20229 1.64521,0.75937 2.88969,2.08821 3.73342,3.98653"
         id="path4261"
         inkscape:connector-curvature="0" />
      <path
         d="m 297.81114,981.22338 c -1e-5,1.01246 0.16874,1.94054 0.50623,2.78424 0.37966,0.80153 0.88589,1.49759 1.51868,2.08819 0.63277,0.5906 1.34992,1.05464 2.15146,1.39212 0.8437,0.2953 1.72959,0.44295 2.65768,0.44294 0.42185,10e-6 0.94916,-0.0422 1.58196,-0.12655 0.63277,-0.12656 1.24446,-0.25311 1.83507,-0.37967 0.71714,-0.16874 1.45538,-0.35857 2.21474,-0.56951 l 1.01245,2.9108 c -0.84373,0.2953 -1.64525,0.52732 -2.40457,0.69607 -0.67499,0.16874 -1.41323,0.31639 -2.21474,0.44294 -0.75936,0.12656 -1.43432,0.18984 -2.02491,0.18984 -1.39213,0 -2.69988,-0.23202 -3.92325,-0.69606 -1.1812,-0.50623 -2.23584,-1.20229 -3.16391,-2.08819 -0.8859,-0.88589 -1.60306,-1.91943 -2.15146,-3.10063 -0.50623,-1.22337 -0.75935,-2.55222 -0.75934,-3.98653 l 0,-13.22516 c -10e-6,-1.43428 0.25311,-2.74203 0.75934,-3.92325 0.5484,-1.22335 1.26556,-2.2569 2.15146,-3.10064 0.88589,-0.84368 1.91943,-1.49755 3.10063,-1.96162 1.22337,-0.5062 2.53112,-0.75931 3.92326,-0.75934 0.67495,3e-5 1.37101,0.0844 2.08818,0.25311 0.75932,0.16877 1.45538,0.35861 2.08818,0.56951 0.75932,0.21095 1.49757,0.46407 2.21474,0.75933 l -0.75934,2.72097 c -0.6328,-0.2109 -1.28667,-0.40073 -1.96162,-0.5695 -0.59062,-0.16872 -1.20231,-0.31637 -1.83507,-0.44295 -0.6328,-0.12653 -1.24449,-0.18981 -1.83507,-0.18984 -1.85618,3e-5 -3.45923,0.61172 -4.80915,1.83507 -1.30776,1.18122 -1.96164,2.78427 -1.96163,4.80915 l 0,13.22516"
         id="path4263"
         inkscape:connector-curvature="0" />
      <path
         d="m 319.62336,982.36239 0,-20.31233 -5.37865,0 0,-3.16391 5.37865,0 0,-12.59237 3.35375,0 0,12.59237 5.8216,0 0,3.16391 -5.8216,0 0,20.62872 c -10e-6,1.72961 0.42184,2.9319 1.26556,3.60686 0.88589,0.63279 1.94052,0.94918 3.16392,0.94917 l 1.39212,0 0,3.41703 -1.70852,0 c -1.05465,0 -2.046,-0.14765 -2.97407,-0.44295 -0.88591,-0.33748 -1.66634,-0.82261 -2.3413,-1.4554 -0.67498,-0.67496 -1.20229,-1.53977 -1.58196,-2.59441 -0.37967,-1.05463 -0.56951,-2.32019 -0.5695,-3.79669"
         id="path4265"
         inkscape:connector-curvature="0" />
      <path
         d="m 334.02411,946.29378 3.35374,0 0,4.9357 -3.35374,0 0,-4.9357 m 0,12.65565 3.35374,0 0,31.63913 -3.35374,0 0,-31.63913"
         id="path4267"
         inkscape:connector-curvature="0" />
      <path
         d="m 361.46413,981.47649 0,-13.73138 c -2e-5,-1.3921 -0.25313,-2.48892 -0.75934,-3.29047 -0.50624,-0.84369 -1.11793,-1.47647 -1.83507,-1.89835 -0.67498,-0.46401 -1.41323,-0.75931 -2.21474,-0.8859 -0.75935,-0.16871 -1.41322,-0.25308 -1.96162,-0.25311 -0.54843,3e-5 -1.22339,0.0844 -2.02491,0.25311 -0.75935,0.12659 -1.49759,0.42189 -2.21474,0.8859 -0.71716,0.42188 -1.32885,1.05466 -1.83507,1.89835 -0.50623,0.80155 -0.75934,1.89837 -0.75933,3.29047 l 0,13.73138 c -10e-6,1.39213 0.2531,2.51005 0.75933,3.35375 0.50622,0.80153 1.11791,1.43431 1.83507,1.89835 0.71715,0.46404 1.45539,0.78043 2.21474,0.94917 0.80152,0.12656 1.47648,0.18984 2.02491,0.18984 0.5484,0 1.20227,-0.0633 1.96162,-0.18984 0.80151,-0.16874 1.53976,-0.48513 2.21474,-0.94917 0.71714,-0.46404 1.32883,-1.09682 1.83507,-1.89835 0.50621,-0.8437 0.75932,-1.96162 0.75934,-3.35375 m 2.9108,0.44295 c -2e-5,1.94054 -0.3586,3.5014 -1.07573,4.68259 -0.71717,1.1812 -1.58197,2.10928 -2.59441,2.78424 -1.01247,0.63279 -2.0671,1.05464 -3.16391,1.26557 -1.09684,0.21093 -2.04601,0.31639 -2.84752,0.31639 -0.80154,0 -1.75071,-0.10546 -2.84752,-0.31639 -1.09684,-0.21093 -2.15147,-0.63278 -3.16392,-1.26557 -1.01246,-0.67496 -1.87726,-1.60304 -2.59441,-2.78424 -0.71715,-1.18119 -1.07573,-2.74205 -1.07573,-4.68259 l 0,-14.61728 c 0,-1.94051 0.35858,-3.50137 1.07573,-4.68259 0.71715,-1.18117 1.58195,-2.08815 2.59441,-2.72097 1.01245,-0.63275 2.06708,-1.0546 3.16392,-1.26556 1.09681,-0.2109 2.04598,-0.31636 2.84752,-0.31639 0.80151,3e-5 1.75068,0.10549 2.84752,0.31639 1.09681,0.21096 2.15144,0.63281 3.16391,1.26556 1.01244,0.63282 1.87724,1.5398 2.59441,2.72097 0.71713,1.18122 1.07571,2.74208 1.07573,4.68259 l 0,14.61728"
         id="path4269"
         inkscape:connector-curvature="0" />
      <path
         d="m 390.4436,963.56874 c 0.5062,1.05467 0.8015,2.1304 0.88589,3.22719 0.0843,1.05466 0.12654,2.15149 0.12656,3.29047 l 0,20.50216 -3.35375,0 0,-22.46378 c -2e-5,-2.15144 -0.56952,-3.79667 -1.70851,-4.93571 -1.13903,-1.13898 -2.42568,-1.70848 -3.85998,-1.70851 -0.80153,3e-5 -1.83508,0.12658 -3.10063,0.37967 -1.22339,0.25314 -2.61551,0.88592 -4.17637,1.89835 l 0,26.82998 -3.22719,0 0,-28.5385 -1.39212,-1.32884 2.27802,-2.27802 1.89835,1.89835 c 2.32019,-1.30772 4.51383,-1.96159 6.58094,-1.96163 1.89833,4e-5 3.67012,0.4008 5.31537,1.20229 1.64521,0.75937 2.88969,2.08821 3.73342,3.98653"
         id="path4271"
         inkscape:connector-curvature="0" />
      <path
         d="m 413.83382,975.21194 c -2e-5,-0.0422 -0.18985,-0.16872 -0.5695,-0.37967 -0.37969,-0.25309 -0.90701,-0.50621 -1.58196,-0.75934 -0.6328,-0.29528 -1.39214,-0.54839 -2.27802,-0.75933 -0.88591,-0.2531 -1.81399,-0.37966 -2.78424,-0.37967 -0.71717,10e-6 -1.41323,0.14766 -2.08818,0.44294 -0.6328,0.29532 -1.18121,0.69608 -1.64524,1.20229 -0.46405,0.50624 -0.84372,1.09684 -1.13901,1.77179 -0.25312,0.6328 -0.37967,1.32886 -0.37967,2.08818 l 0,3.98654 c 0,0.75934 0.12655,1.4765 0.37967,2.15146 0.29529,0.63278 0.67496,1.20229 1.13901,1.70851 0.46403,0.46404 1.01244,0.84371 1.64524,1.13901 0.63277,0.2953 1.30774,0.44295 2.0249,0.44295 0.63277,0 1.34992,-0.10546 2.15146,-0.31639 0.8437,-0.25311 1.64522,-0.52732 2.40458,-0.82262 0.88587,-0.33748 1.79286,-0.71715 2.72096,-1.13901 l 0,-10.37764 m 3.22719,12.27599 1.20229,1.13901 -2.27802,2.27801 -1.70851,-1.70851 c -1.34995,0.75934 -2.76317,1.28666 -4.23964,1.58196 -1.43433,0.29529 -2.57333,0.44294 -3.41703,0.44294 -1.18121,0 -2.29912,-0.23202 -3.35375,-0.69606 -1.01246,-0.50622 -1.89835,-1.1601 -2.65769,-1.96162 -0.75934,-0.84371 -1.34994,-1.81398 -1.77179,-2.9108 -0.42186,-1.09682 -0.63278,-2.25692 -0.63278,-3.48031 l 0,-3.54358 c 0,-1.22337 0.21092,-2.36237 0.63278,-3.41703 0.42185,-1.0968 1.01245,-2.04598 1.77179,-2.84752 0.75934,-0.8015 1.64523,-1.43429 2.65769,-1.89835 1.05463,-0.46402 2.17254,-0.69604 3.35375,-0.69606 0.29529,2e-5 0.73823,0.0211 1.32884,0.0633 0.63277,0.0422 1.28665,0.12658 1.96163,0.25311 0.71714,0.12658 1.43429,0.31642 2.15146,0.56951 0.71714,0.21095 1.32883,0.50624 1.83507,0.88589 l 0,-2.15146 c -2e-5,-0.97024 -0.18985,-1.91942 -0.5695,-2.84752 -0.33751,-0.97024 -0.80155,-1.83504 -1.39213,-2.59441 -0.59061,-0.75931 -1.28667,-1.371 -2.08818,-1.83507 -0.80154,-0.46401 -1.66634,-0.69603 -2.59441,-0.69606 -0.33749,3e-5 -0.94918,0.10549 -1.83507,0.31639 -0.84372,0.21096 -1.72961,0.42189 -2.65769,0.63278 -1.09682,0.25315 -2.27802,0.54844 -3.54358,0.8859 l -0.88589,-2.97408 c 1.39211,-0.33745 2.67877,-0.65384 3.85997,-0.94917 1.01244,-0.25308 2.0038,-0.4851 2.97408,-0.69606 0.97025,-0.2109 1.66631,-0.31636 2.08818,-0.31639 1.34992,3e-5 2.61549,0.31642 3.7967,0.94917 1.18118,0.63281 2.21472,1.47652 3.10063,2.53113 0.88588,1.01248 1.58194,2.19367 2.08819,3.54358 0.5062,1.30778 0.75931,2.65771 0.75933,4.04981 l 0.0633,18.09759"
         id="path4273"
         inkscape:connector-curvature="0" />
      <path
         d="m 425.1191,946.29378 3.29047,0 0,36.25844 c -10e-6,1.72961 0.42185,2.9319 1.26556,3.60686 0.88589,0.63279 1.94053,0.94918 3.16392,0.94918 l 0.82262,0 0,3.41702 -1.13901,0 c -1.05465,0 -2.04601,-0.14765 -2.97408,-0.44294 -0.88591,-0.33749 -1.66634,-0.82262 -2.3413,-1.4554 -0.63279,-0.67497 -1.13901,-1.53977 -1.51868,-2.59441 -0.37967,-1.05464 -0.5695,-2.3202 -0.5695,-3.7967 l 0,-35.94205"
         id="path4275"
         inkscape:connector-curvature="0" />
    </g>
    <g
       transform="scale(1.1094596,0.90133972)"
       style="font-size:76.95785522px;font-style:normal;font-variant:normal;font-weight:normal;font-stretch:normal;line-height:125%;letter-spacing:0px;word-spacing:0px;fill:#fdf2e1;fill-opacity:1;stroke:none;font-family:Codystar;-inkscape-font-specification:Codystar"
       id="text3873">
      <path
         d="m 235.74872,1114.1017 c -0.20046,0.1003 -0.45097,0.2255 -0.75155,0.3758 -0.30065,0.1002 -0.55116,0.1503 -0.75154,0.1503 -0.15034,0 -0.2756,-0.05 -0.37577,-0.1503 -0.30065,-0.05 -0.55117,-0.2004 -0.75154,-0.4509 -0.20045,-0.3006 -0.42591,-0.5261 -0.67639,-0.6764 0.25048,-0.2505 0.37574,-0.4259 0.37577,-0.5261 0.0501,-0.1503 0.12522,-0.4008 0.22547,-0.7516 0.30058,-0.2504 0.60119,-0.3757 0.90185,-0.3757 0.35068,-0.05 0.7014,-0.1503 1.05215,-0.3006 0.10017,0.1002 0.22543,0.2756 0.37578,0.526 0.15026,0.2005 0.27552,0.3007 0.37577,0.3007 0.20037,0 0.25047,0.2756 0.1503,0.8266 -0.0501,0.5512 -0.10024,0.9019 -0.1503,1.0522 m 3.38193,5.336 c -4e-5,0.1503 -0.0501,0.3758 -0.15031,0.6763 -0.20045,0.1003 -0.35076,0.2005 -0.45092,0.3007 -0.0501,0.05 -0.1253,0.1253 -0.22546,0.2254 -0.10025,0.05 -0.22551,0.1003 -0.37577,0.1503 -0.15035,0.05 -0.37582,0.075 -0.67639,0.075 -0.20045,0 -0.37581,0 -0.52608,0 -0.15035,-0.05 -0.32571,-0.1002 -0.52608,-0.1503 -0.10025,-0.2004 -0.20045,-0.4008 -0.30062,-0.6013 -0.10024,-0.2504 -0.15034,-0.5009 -0.1503,-0.7515 0.15026,-0.6012 0.45088,-1.1273 0.90185,-1.5782 l 0.52608,0 c 0.45088,0 0.87675,0.1503 1.27762,0.4509 0.45088,0.3006 0.67634,0.7015 0.67638,1.2025 M 229.06,1110.4943 c -0.25055,0.2005 -0.52612,0.4009 -0.8267,0.6012 -0.25055,0.1504 -0.50106,0.3007 -0.75154,0.451 -0.65137,0 -1.10229,-0.2254 -1.35278,-0.6764 -0.25054,-0.501 -0.3758,-1.0271 -0.37577,-1.5783 l 1.12732,-1.0521 c 0.35068,0.2004 0.6513,0.3257 0.90185,0.3758 0.25048,0 0.55109,0.025 0.90185,0.075 l 0.37577,1.8037 m 10.29612,16.2333 c -5e-5,0.3007 -0.15036,0.5512 -0.45093,0.7515 -0.25056,0.1504 -0.50107,0.3007 -0.75154,0.451 l -1.12731,0 c -0.30066,-0.1002 -0.57623,-0.2255 -0.8267,-0.3758 -0.20045,-0.2004 -0.30066,-0.501 -0.30062,-0.9019 -4e-5,-0.3005 0.0751,-0.6011 0.22547,-0.9018 l -0.22547,-0.5261 c 0.30058,10e-5 0.57615,-0.05 0.8267,-0.1503 0.30058,-0.1002 0.60119,-0.1503 0.90185,-0.1503 0.35068,0 0.7014,0.1253 1.05216,0.3758 0.40078,0.2004 0.55108,0.501 0.45092,0.9018 0.15027,0.1504 0.22542,0.3257 0.22547,0.5261 m -18.18731,-17.5109 c -3e-5,0.2005 -0.20044,0.476 -0.60123,0.8267 -0.40085,0.3508 -0.70147,0.5261 -0.90185,0.5261 -0.40085,0 -0.65136,-0.1002 -0.75154,-0.3007 -0.0501,-0.2003 -0.27559,-0.2504 -0.67639,-0.1503 -0.10023,-0.5009 -0.15033,-0.8517 -0.15031,-1.0521 -2e-5,-0.3006 0.0501,-0.5761 0.15031,-0.8267 0.15028,-0.2505 0.27554,-0.501 0.37577,-0.7516 0.4008,0.05 0.80162,0.1003 1.20247,0.1503 0.4509,0.05 0.87677,0.1755 1.27762,0.3758 -3e-5,0.2005 -3e-5,0.4009 0,0.6013 0.0501,0.2004 0.0751,0.4008 0.0752,0.6012 m -8.04149,-0.5261 c -0.0501,0.2506 -0.10023,0.4009 -0.15031,0.4509 -0.0501,0.05 -0.12528,0.1504 -0.22547,0.3006 -1e-5,0.1504 0.0501,0.3258 0.15031,0.5261 -0.25053,0.05 -0.47599,0.1504 -0.67638,0.3006 -0.20043,0.1504 -0.42589,0.2256 -0.67639,0.2255 -0.20043,10e-5 -0.5261,-0.1252 -0.97701,-0.3758 -0.40083,-0.2504 -0.70145,-0.4258 -0.90185,-0.526 0.1002,-0.2004 0.12525,-0.4008 0.0752,-0.6013 -2e-5,-0.2003 0.0501,-0.4007 0.15031,-0.6012 l 1.35277,-0.9019 c 0.55112,0.1003 0.92689,0.2256 1.12731,0.3758 0.2505,0.1003 0.50101,0.3758 0.75155,0.8267 m 22.54624,24.4251 c -0.20045,0.2506 -0.42591,0.476 -0.67639,0.6764 -0.25055,0.2004 -0.57622,0.3006 -0.977,0.3006 -0.40086,0 -0.67642,-0.1002 -0.82669,-0.3006 -0.15035,-0.2004 -0.42592,-0.3006 -0.8267,-0.3006 0.10017,-0.501 0.22542,-0.9519 0.37577,-1.3528 0.15027,-0.4008 0.42584,-0.7515 0.8267,-1.0522 l 0.52607,0 c 0.25048,10e-5 0.5511,0.1253 0.90185,0.3758 0.40079,0.2506 0.6012,0.5261 0.60124,0.8267 -4e-5,0.1002 -0.0251,0.2005 -0.0752,0.3006 -4e-5,0.05 -4e-5,0.1253 0,0.2255 l 0.15031,0.3006 m -30.21197,-23.5984 c -0.30062,0.2506 -0.65134,0.476 -1.05216,0.6764 -0.35072,0.2005 -0.75155,0.3007 -1.20246,0.3006 -0.30063,10e-5 -0.65135,-0.1001 -1.05216,-0.3006 l 0,-0.6764 c -1e-5,-0.1001 -0.0251,-0.2004 -0.0752,-0.3006 -0.0501,-0.1002 -0.0752,-0.2004 -0.0751,-0.3006 -1e-5,-0.5511 0.2004,-0.9018 0.60123,-1.0522 0.40082,-0.2003 0.82669,-0.3005 1.27762,-0.3006 0.1503,0.2506 0.35071,0.4259 0.60124,0.5261 0.3006,0.1002 0.42586,0.3507 0.37577,0.7515 l 0.60123,0.6764 m 23.4481,25.7027 c -0.15034,0.2506 -0.3257,0.5261 -0.52608,0.8267 -0.15034,0.2506 -0.35075,0.476 -0.60123,0.6764 -0.20045,0.1002 -0.40086,0.1503 -0.60124,0.1503 -0.40085,0 -0.75157,-0.1002 -1.05216,-0.3006 -0.25054,-0.2505 -0.55116,-0.4258 -0.90185,-0.5261 l 0.37578,-1.5031 c 0.20038,-0.1001 0.37574,-0.1753 0.52607,-0.2254 0.15028,-0.05 0.22544,-0.2255 0.22547,-0.5261 l 1.87885,0.2255 0.67639,1.2024 m -23.67356,-18.3376 0,0.4509 c -0.25052,0.2506 -0.47599,0.426 -0.67639,0.5261 -0.20042,0.1003 -0.37578,0.3508 -0.52608,0.7516 -0.20042,-0.05 -0.45093,-0.1002 -0.75154,-0.1504 -0.25052,-0.1001 -0.42588,-0.2254 -0.52608,-0.3757 -0.45093,-0.2004 -0.67639,-0.5261 -0.67639,-0.977 0,-0.7014 0.25051,-1.3027 0.75155,-1.8037 l 1.42793,0 c 0.15029,0.1503 0.27555,0.3006 0.37577,0.4509 0.10019,0.1003 0.27555,0.2005 0.52608,0.3006 -1e-5,0.1504 -1e-5,0.3007 0,0.4509 0.0501,0.1003 0.0751,0.2255 0.0752,0.3758 m 15.63206,19.4649 c -0.10023,0.2005 -0.20043,0.4009 -0.30061,0.6013 -0.10023,0.1503 -0.27559,0.2756 -0.52608,0.3757 -0.25054,0.3007 -0.65136,0.451 -1.20247,0.451 -0.10023,0 -0.22548,0 -0.37577,0 -0.15033,-0.05 -0.27559,-0.075 -0.37577,-0.075 -0.10023,-0.1503 -0.20043,-0.3006 -0.30062,-0.4509 -0.10022,-0.2004 -0.25053,-0.3006 -0.45092,-0.3006 -2e-5,-0.2505 0.0501,-0.501 0.15031,-0.7516 0.10018,-0.2505 0.15028,-0.501 0.1503,-0.7515 -2e-5,-0.2505 0.20039,-0.4259 0.60124,-0.5261 0.4509,-0.1503 0.80162,-0.2254 1.05216,-0.2255 0.35069,10e-5 0.6012,0.05 0.75154,0.1504 0.15028,0.1002 0.25049,0.2254 0.30061,0.3757 0.10018,0.1504 0.17534,0.3257 0.22547,0.5261 0.0501,0.2004 0.15028,0.4009 0.30061,0.6012 m -15.55691,-9.77 c -0.25052,0.2004 -0.47598,0.3508 -0.67638,0.4509 -0.15032,0.05 -0.30063,0.1003 -0.45093,0.1503 -0.10021,10e-5 -0.25052,10e-5 -0.45092,0 -0.15032,10e-5 -0.35073,0.05 -0.60124,0.1503 -0.80165,-0.3506 -1.20247,-0.9018 -1.20246,-1.6534 -1e-5,-0.2003 -1e-5,-0.3757 0,-0.526 0.0501,-0.2004 0.0751,-0.4008 0.0752,-0.6013 0.25051,-0.1001 0.50102,-0.2003 0.75154,-0.3006 0.30061,-0.1503 0.60123,-0.2254 0.90185,-0.2254 0.50102,0 0.977,0.1503 1.42793,0.4509 -1e-5,0.2505 0.025,0.476 0.0752,0.6764 0.10019,0.2004 0.15029,0.4259 0.1503,0.6764 l 0,0.7515 m 6.83903,10.3713 c -0.25053,0.2505 -0.47599,0.476 -0.67639,0.6764 -0.15032,0.1503 -0.40083,0.2505 -0.75154,0.3006 -0.25053,-0.1002 -0.52609,-0.1503 -0.82669,-0.1503 -0.30063,-0.05 -0.5762,-0.1253 -0.8267,-0.2255 -1e-5,-0.2505 -0.0501,-0.4759 -0.15031,-0.6764 -0.0501,-0.2004 -0.0752,-0.4258 -0.0752,-0.6764 -1e-5,-0.3006 0.12524,-0.5511 0.37577,-0.7515 0.2505,-0.2004 0.42586,-0.4259 0.52608,-0.6764 0.40081,0.05 0.77658,0.1002 1.12731,0.1503 0.3507,0 0.72647,0.1253 1.12731,0.3758 -1e-5,0.2505 0.025,0.5261 0.0752,0.8267 0.0501,0.3006 0.0751,0.5762 0.0751,0.8267 m -6.61356,-2.2547 0,0.6764 c -0.0501,0.3007 -0.25053,0.6013 -0.60124,0.9019 -0.35073,0.3006 -0.67639,0.4509 -0.977,0.4509 -0.0501,0 -0.17537,-0.05 -0.37577,-0.1503 -0.25052,0 -0.52609,-0.1002 -0.8267,-0.3006 -0.15031,-0.2505 -0.30062,-0.476 -0.45092,-0.6764 -0.15032,-0.2505 -0.22547,-0.5261 -0.22547,-0.8267 0,-0.2505 0.0752,-0.4509 0.22547,-0.6012 0.1503,-0.2004 0.30061,-0.3758 0.45092,-0.5261 0.25051,-0.1002 0.57618,-0.1252 0.97701,-0.075 0.45091,10e-5 0.80163,10e-5 1.05215,0 0.1503,0.3508 0.25051,0.5762 0.30062,0.6764 0.0501,0.05 0.2004,0.2005 0.45093,0.4509 m 0,9.3943 c -0.0501,0.2505 -0.0752,0.451 -0.0752,0.6012 0.0501,0.1504 -1e-5,0.3508 -0.15031,0.6013 -0.25052,0.1002 -0.52609,0.2505 -0.82669,0.4509 -0.25053,0.2004 -0.50104,0.3006 -0.75154,0.3006 -0.15032,0 -0.37578,-0.05 -0.67639,-0.1503 -0.35073,-0.501 -0.70145,-0.9018 -1.05216,-1.2025 0.1503,-0.501 0.27556,-0.8517 0.37577,-1.0521 0.1503,-0.2004 0.35071,-0.501 0.60123,-0.9019 0.60123,0.05 1.07721,0.1754 1.42793,0.3758 0.40082,0.1503 0.77659,0.476 1.12732,0.977 m -0.0752,8.7931 c -0.10021,0.8517 -0.37578,1.4028 -0.82669,1.6533 -0.40084,0.2005 -0.97702,0.3007 -1.72855,0.3007 -0.25052,-0.2505 -0.47598,-0.5011 -0.67639,-0.7516 -0.15031,-0.3006 -0.22547,-0.6513 -0.22546,-1.0521 -1e-5,-0.1503 0.025,-0.2756 0.0751,-0.3758 0.0501,-0.1503 0.1002,-0.3006 0.15031,-0.4509 0.50102,-0.4008 1.05215,-0.6013 1.65339,-0.6013 0.20041,0 0.45092,0.05 0.75155,0.1503 0.10019,0.2005 0.22545,0.4009 0.37577,0.6013 0.1503,0.1503 0.3006,0.3256 0.45092,0.5261 m -0.22546,9.4694 c -1e-5,0.2505 -0.0501,0.501 -0.15031,0.7515 -0.0501,0.2505 -0.0752,0.501 -0.0752,0.7516 -0.30063,0 -0.60125,0.05 -0.90185,0.1503 -0.30063,0.1002 -0.60124,0.1503 -0.90185,0.1503 -0.50104,-0.2505 -0.97701,-0.6013 -1.42793,-1.0522 0.0501,-0.1002 0.1002,-0.2004 0.15031,-0.3006 0.0501,-0.1002 0.0751,-0.2004 0.0752,-0.3006 -0.0501,-0.1503 -0.0752,-0.3257 -0.0752,-0.5261 0.2505,-0.2505 0.52607,-0.476 0.82669,-0.6764 0.30061,-0.2505 0.65133,-0.3758 1.05216,-0.3758 0.25051,0 0.45092,0.075 0.60123,0.2255 l 0.60124,-0.1503 c 0.0501,0.2505 0.10019,0.476 0.15031,0.6764 0.0501,0.2004 0.0751,0.4259 0.0752,0.6764"
         id="path4278"
         inkscape:connector-curvature="0" />
      <path
         d="m 252.58325,1108.0894 c -1e-5,0.2004 -0.0251,0.3758 -0.0752,0.5261 -1e-5,0.1503 -1e-5,0.3257 0,0.526 -0.30063,0.1003 -0.62629,0.2005 -0.977,0.3006 -0.30063,0.1003 -0.60124,0.1504 -0.90185,0.1504 -0.30063,-0.1503 -0.57619,-0.3257 -0.8267,-0.5261 -0.25052,-0.2505 -0.37578,-0.5511 -0.37577,-0.9019 -1e-5,-0.3005 0.0752,-0.551 0.22546,-0.7515 0.1503,-0.2004 0.27556,-0.4258 0.37577,-0.6764 0.30061,-0.1001 0.52608,-0.1503 0.67639,-0.1503 0.40082,0 0.75153,0.1253 1.05216,0.3758 0.30061,0.2004 0.57617,0.4259 0.8267,0.6763 l 0,0.451 m 0.30061,6.1626 c -0.10021,0.2506 -0.17537,0.476 -0.22546,0.6764 -0.0501,0.1504 -0.0752,0.3508 -0.0752,0.6012 -0.25053,0.1504 -0.50104,0.3007 -0.75155,0.451 -0.25052,0.1002 -0.52608,0.1503 -0.82669,0.1503 -0.40083,0 -0.70145,-0.075 -0.90185,-0.2255 -0.20042,-0.2004 -0.35073,-0.4258 -0.45093,-0.6764 -0.0501,-0.2504 -0.10021,-0.501 -0.15031,-0.7515 0,-0.3006 -0.0251,-0.5762 -0.0752,-0.8267 0.30061,-0.1002 0.55112,-0.2254 0.75154,-0.3758 0.25051,-0.1502 0.52607,-0.2254 0.8267,-0.2255 0.35071,0.2005 0.67638,0.3759 0.977,0.5261 0.35071,0.1003 0.65133,0.3257 0.90185,0.6764 m -0.37577,7.4403 c -1e-5,0.4509 -0.15032,0.8267 -0.45092,1.1273 -0.40084,0.1503 -0.77661,0.2255 -1.12732,0.2255 l -0.45092,0 c -0.25052,-0.2004 -0.47598,-0.4008 -0.67639,-0.6013 -0.20042,-0.2004 -0.30062,-0.4509 -0.30062,-0.7515 0,-0.1002 0.025,-0.2254 0.0752,-0.3758 0.0501,-0.1503 0.1002,-0.2755 0.15031,-0.3758 0.2505,-0.1001 0.50102,-0.2003 0.75154,-0.3006 0.2505,-0.1502 0.50102,-0.2254 0.75154,-0.2254 0.25051,0 0.45092,0.075 0.60123,0.2254 0.20041,0.1504 0.42587,0.2756 0.67639,0.3758 l 0,0.6764 m -0.15031,6.3129 c -10e-6,0.5512 -0.0501,0.9771 -0.15031,1.2776 -0.0501,0.3007 -0.20042,0.6765 -0.45092,1.1274 -0.40083,-0.05 -0.7265,-0.05 -0.977,0 -0.25053,0 -0.57619,-0.075 -0.97701,-0.2255 -1e-5,-0.3006 -0.0501,-0.5762 -0.15031,-0.8267 -0.10021,-0.3006 -0.15031,-0.5761 -0.15031,-0.8267 l 0,-0.5261 c 0.20041,-0.1001 0.40082,-0.2004 0.60124,-0.3006 0.2004,-0.1002 0.40081,-0.1503 0.60123,-0.1503 0.35071,0 0.62628,0.075 0.8267,0.2255 0.2505,0.1503 0.52607,0.2255 0.82669,0.2254 m 0,8.0415 c -10e-6,0.2506 -0.10021,0.476 -0.30061,0.6764 -0.15032,0.2004 -0.27558,0.4259 -0.37577,0.6764 -0.40084,0.1002 -0.7265,0.1503 -0.97701,0.1503 -0.40083,0 -0.75155,-0.1503 -1.05216,-0.4509 -0.30062,-0.3507 -0.45093,-0.7265 -0.45092,-1.1273 -1e-5,-0.2505 0.0751,-0.4509 0.22546,-0.6013 0.1503,-0.2004 0.32566,-0.3507 0.52608,-0.4509 0.2004,-0.1503 0.45092,-0.2254 0.75154,-0.2255 0.35071,10e-5 0.72648,0.1253 1.12731,0.3758 0.0501,0.2005 0.1503,0.3508 0.30062,0.4509 0.1503,0.1003 0.22545,0.2756 0.22546,0.5261 m 0.0752,6.839 c -1e-5,0.451 -0.17537,0.9019 -0.52608,1.3528 -0.30063,0.1503 -0.6263,0.2255 -0.97701,0.2255 -0.55113,0 -1.00206,-0.1754 -1.35277,-0.5261 -0.10021,-0.2004 -0.15032,-0.501 -0.15031,-0.9018 -1e-5,-0.2505 0.0752,-0.5512 0.22546,-0.9019 0.20041,-0.4008 0.47597,-0.6012 0.8267,-0.6012 0.1002,0 0.17535,0.025 0.22546,0.075 0.0501,0 0.1002,0 0.15031,0 l 0.22546,-0.3006 c 0.25051,0.2505 0.42587,0.4259 0.52608,0.5261 0.1503,0.1002 0.37576,0.2004 0.67639,0.3006 0.10019,0.3006 0.1503,0.5512 0.15031,0.7515 m 0.37577,7.5155 c -0.35073,0.2004 -0.6764,0.3757 -0.97701,0.526 -0.30062,0.1504 -0.65134,0.2255 -1.05215,0.2255 l -0.67639,0 c -0.25052,-0.2004 -0.47599,-0.4008 -0.67639,-0.6012 -0.20042,-0.2004 -0.35073,-0.4259 -0.45092,-0.6764 0.2004,-0.3507 0.40081,-0.6513 0.60123,-0.9019 0.25051,-0.2505 0.47597,-0.526 0.67639,-0.8267 0.0501,0.05 0.17535,0.1253 0.37577,0.2255 0.10019,0 0.17535,0 0.22546,0 0.1002,-0.05 0.2004,-0.075 0.30062,-0.075 0.1503,10e-5 0.27555,0.025 0.37577,0.075 0.1503,0.4008 0.42586,0.6263 0.82669,0.6764 -1e-5,0.3507 0.025,0.6012 0.0752,0.7515 0.1503,0.1002 0.27555,0.3007 0.37577,0.6013 m -0.45093,6.4632 c -1e-5,0.3507 -0.20042,0.6013 -0.60123,0.7516 -0.35073,0.1503 -0.65134,0.2254 -0.90185,0.2254 -0.25052,0 -0.47598,0 -0.67639,0 -0.15031,-0.05 -0.32567,-0.075 -0.52608,-0.075 -0.0501,-0.2505 -0.12526,-0.476 -0.22546,-0.6764 -0.10021,-0.2004 -0.15031,-0.4259 -0.15031,-0.6764 0.25051,-0.4509 0.45092,-0.7265 0.60124,-0.8267 0.1503,-0.1002 0.37576,-0.3006 0.67638,-0.6012 0.20041,0.1002 0.37577,0.2004 0.52608,0.3006 0.1503,0.05 0.35071,0.075 0.60124,0.075 0.10019,0.2506 0.22545,0.5011 0.37577,0.7516 0.2004,0.2505 0.3006,0.501 0.30061,0.7515 m 0.15031,6.1627 c -0.10021,0.2004 -0.25052,0.3757 -0.45092,0.526 -0.20042,0.2005 -0.30063,0.4259 -0.30062,0.6764 -0.40083,0.1002 -0.70145,0.1503 -0.90185,0.1503 -0.40083,0 -0.75155,-0.1252 -1.05216,-0.3757 -0.25052,-0.2004 -0.47598,-0.451 -0.67639,-0.7516 0.1002,-0.2505 0.15031,-0.4509 0.15031,-0.6012 0,-0.2004 0,-0.4008 0,-0.6012 0.25051,-0.1002 0.50102,-0.2255 0.75154,-0.3758 0.25051,-0.1503 0.50102,-0.2255 0.75155,-0.2255 0.2004,0 0.37576,0.075 0.52607,0.2255 0.1503,0.1002 0.30061,0.1753 0.45093,0.2254 0.1503,0.2506 0.22545,0.476 0.22546,0.6764 0.0501,0.2004 0.22545,0.3508 0.52608,0.451"
         id="path4280"
         inkscape:connector-curvature="0" />
      <path
         d="m 301.88437,1109.6676 c -0.35076,0.1003 -0.55117,0.2255 -0.60123,0.3758 -0.0501,0.1503 -0.2255,0.2505 -0.52608,0.3006 -0.10024,10e-5 -0.20045,10e-5 -0.30061,0 -0.10025,-0.05 -0.20046,-0.075 -0.30062,-0.075 l -0.37577,0.075 c -0.45097,-0.05 -0.75158,-0.2505 -0.90185,-0.6012 -0.10025,-0.3507 -0.2255,-0.7265 -0.37577,-1.1273 0.10016,-0.2505 0.22542,-0.4259 0.37577,-0.5261 0.15027,-0.1002 0.32563,-0.2755 0.52608,-0.5261 0.15027,10e-5 0.30057,10e-5 0.45092,0 0.20037,-0.05 0.40078,-0.075 0.60124,-0.075 0.20037,10e-5 0.45088,0.05 0.75154,0.1503 0.15026,0.4009 0.27552,0.7516 0.37577,1.0522 0.10016,0.2506 0.20037,0.5762 0.30061,0.977 m -3.90801,5.5614 c -4e-5,0.4009 -0.20045,0.7516 -0.60124,1.0522 -0.35075,0.2505 -0.72652,0.3758 -1.12731,0.3757 -0.20045,1e-4 -0.42591,-0.05 -0.67638,-0.1503 -0.25055,-0.1001 -0.47602,-0.2003 -0.67639,-0.3006 -0.10024,-0.2504 -0.1754,-0.4509 -0.22546,-0.6012 -4e-5,-0.2004 -4e-5,-0.3507 0,-0.4509 -4e-5,-0.1503 0.025,-0.2756 0.0752,-0.3758 0.0501,-0.1002 0.12522,-0.2254 0.22546,-0.3758 0.20038,-0.3005 0.42584,-0.5761 0.67639,-0.8267 0.6012,10e-5 1.20243,0.075 1.8037,0.2255 0.10017,0.3007 0.20037,0.5261 0.30062,0.6764 0.15027,0.1002 0.22542,0.3507 0.22546,0.7515 m -4.80987,7.0645 c -0.10024,0.2005 -0.20044,0.4009 -0.30061,0.6012 -0.10024,0.2005 -0.2255,0.4009 -0.37578,0.6013 -0.45095,0.3507 -0.82672,0.5261 -1.12731,0.5261 -0.50106,0 -0.82672,-0.1002 -0.977,-0.3007 -0.15034,-0.2003 -0.35075,-0.5009 -0.60123,-0.9018 l 0,-0.4509 c -4e-5,-0.4509 0.0501,-0.7014 0.1503,-0.7516 0.15028,-0.1001 0.27554,-0.2755 0.37577,-0.5261 0.25049,-0.1502 0.4008,-0.2254 0.45093,-0.2254 0.0501,0 0.20038,0 0.45092,0 l 0.30062,-0.1503 c 0.15028,0.1002 0.30058,0.2004 0.45093,0.3006 0.20037,0.1002 0.35068,0.2255 0.45092,0.3758 0.25048,0.2505 0.32564,0.4509 0.22546,0.6012 -0.0501,0.1002 0.12523,0.2004 0.52608,0.3006 m -4.88502,6.7639 c -3e-5,0.3507 -0.0501,0.6263 -0.15031,0.8267 -0.10023,0.2004 -0.27559,0.4259 -0.52608,0.6764 l -0.67638,0 c -0.40085,0 -0.70147,-0.05 -0.90185,-0.1503 -0.15034,-0.1503 -0.3758,-0.3257 -0.67639,-0.5261 -0.0501,-0.1503 -0.10023,-0.3006 -0.15031,-0.4509 -0.0501,-0.2004 -0.0752,-0.4008 -0.0752,-0.6013 -3e-5,-0.2505 0.0501,-0.4509 0.15031,-0.6012 0.15028,-0.1503 0.27553,-0.3256 0.37577,-0.5261 0.20038,0 0.37574,-0.025 0.52608,-0.075 0.20038,-0.05 0.40079,-0.075 0.60123,-0.075 0.35069,0 0.67636,0.1754 0.977,0.5261 0.35069,0.3006 0.52605,0.6263 0.52608,0.977 m -22.39594,-19.9159 c 0,0.1504 -0.0251,0.3007 -0.0752,0.451 -0.0501,0.1503 -0.10021,0.3006 -0.15031,0.4509 -0.25052,0.1002 -0.50103,0.2004 -0.75154,0.3006 -0.25052,0.05 -0.52608,0.075 -0.8267,0.075 l -0.82669,0 c -0.15031,-0.1503 -0.27557,-0.3006 -0.37577,-0.451 -0.10021,-0.2003 -0.22547,-0.3757 -0.37577,-0.5261 0.0501,-0.4007 0.12525,-0.7013 0.22546,-0.9018 0.1002,-0.2505 0.27556,-0.5761 0.52608,-0.977 0.1503,10e-5 0.30061,10e-5 0.45092,0 0.15031,-0.05 0.30062,-0.075 0.45093,-0.075 0.40082,1e-4 0.77659,0.1755 1.12731,0.5261 0.40082,0.3508 0.60123,0.7266 0.60123,1.1273 m 4.58441,6.6888 c -0.20042,0.4008 -0.37578,0.8016 -0.52608,1.2024 -0.10022,0.3508 -0.42589,0.5261 -0.97701,0.5261 -0.55114,0 -1.00206,-0.1753 -1.35277,-0.5261 -0.30063,-0.3507 -0.45093,-0.8016 -0.45093,-1.3528 0,-0.3005 0.1002,-0.551 0.30062,-0.7515 0.2004,-0.1002 0.40081,-0.2004 0.60123,-0.3006 0.20041,-0.1002 0.40082,-0.2254 0.60124,-0.3758 0.2004,0.1003 0.35071,0.2506 0.45092,0.4509 0.1503,0.1504 0.35071,0.2256 0.60124,0.2255 l 0.75154,0.9019 m 4.50925,6.4632 c -0.0501,0.2005 -0.10022,0.3758 -0.15031,0.5261 -0.0501,0.1503 -0.12527,0.3257 -0.22546,0.5261 -2e-5,0.1002 0.025,0.2004 0.0751,0.3006 0.0501,0.05 0.10019,0.1253 0.15031,0.2254 -0.60125,0.2506 -1.15238,0.3759 -1.65339,0.3758 -0.30063,10e-5 -0.5762,-0.05 -0.8267,-0.1503 -0.25053,-0.1002 -0.52609,-0.1753 -0.82669,-0.2255 l 0,-0.6012 c -2e-5,-0.1503 -2e-5,-0.3006 0,-0.4509 0.0501,-0.2004 0.0751,-0.3757 0.0751,-0.5261 0.2004,-0.2505 0.40081,-0.4509 0.60123,-0.6012 0.2004,-0.1503 0.30061,-0.4008 0.30062,-0.7516 0.50101,0.2005 0.85173,0.3508 1.05216,0.451 0.2505,0.1002 0.57616,0.3507 0.977,0.7515 0.0501,0.1002 0.2004,0.1504 0.45093,0.1503 m 4.05832,7.29 c -2e-5,0.4008 -0.17538,0.7766 -0.52608,1.1273 -0.35074,0.3006 -0.72651,0.4509 -1.12731,0.4509 -0.20043,0 -0.37579,-0.05 -0.52608,-0.1503 -0.15033,-0.1002 -0.32568,-0.1503 -0.52608,-0.1503 -0.20043,-0.2004 -0.32568,-0.4008 -0.37577,-0.6013 -0.0501,-0.2003 -0.17538,-0.3757 -0.37577,-0.526 0.15029,-0.4008 0.27555,-0.7014 0.37577,-0.9019 0.15029,-0.2505 0.45091,-0.4759 0.90185,-0.6764 0.45091,10e-5 0.92688,0.1003 1.42793,0.3006 0.50101,0.2005 0.75152,0.5763 0.75154,1.1274 m 4.88502,6.1626 c -2e-5,0.3507 -0.15033,0.7265 -0.45092,1.1273 -0.20044,0.1002 -0.4259,0.2005 -0.67639,0.3006 -0.20044,0.1003 -0.4259,0.1504 -0.67639,0.1503 -0.35074,10e-5 -0.67641,-0.2003 -0.977,-0.6012 -0.30064,-0.4008 -0.50105,-0.7515 -0.60124,-1.0522 0.20039,-0.2504 0.37575,-0.526 0.52608,-0.8266 0.15029,-0.3006 0.3507,-0.5762 0.60124,-0.8267 0.20038,0.05 0.4509,0.075 0.75154,0.075 0.4008,0 0.75152,0.2005 1.05216,0.6012 0.30059,0.3508 0.4509,0.7015 0.45092,1.0522 m 4.65956,6.313 c -3e-5,0.2505 -0.0501,0.4759 -0.15031,0.6763 -0.10023,0.2005 -0.20044,0.4259 -0.30062,0.6764 -0.50105,0.2005 -0.87682,0.3007 -1.12731,0.3006 -0.30064,10e-5 -0.57621,-0.075 -0.82669,-0.2254 -0.25054,-0.1503 -0.47601,-0.3257 -0.67639,-0.5261 l 0,-0.3758 c -3e-5,-0.2004 -0.0501,-0.4008 -0.15031,-0.6012 -0.10023,-0.2004 -0.17539,-0.4259 -0.22546,-0.6764 0.35069,-0.1503 0.67636,-0.3006 0.977,-0.4509 0.30059,-0.1503 0.65131,-0.2255 1.05216,-0.2255 0.25049,0 0.4509,0.1003 0.60123,0.3006 0.20039,0.1504 0.42585,0.3007 0.67639,0.451 0.10018,0.2004 0.15028,0.4259 0.15031,0.6764 m 4.88502,7.2148 c -0.25055,0.501 -0.50106,0.8517 -0.75154,1.0521 -0.20045,0.1503 -0.57622,0.2255 -1.12732,0.2255 -0.40085,0 -0.62631,-0.05 -0.67638,-0.1503 -0.0501,-0.1002 -0.2255,-0.2505 -0.52608,-0.451 -3e-5,-0.3507 -0.12529,-0.7264 -0.37577,-1.1273 0.15028,-0.2505 0.27553,-0.4759 0.37577,-0.6764 0.15028,-0.2505 0.32564,-0.4759 0.52608,-0.6763 l 0.30061,0 c 0.30059,-0.1002 0.52605,-0.1503 0.67639,-0.1504 0.25048,10e-5 0.45089,0.075 0.60123,0.2255 0.20038,0.1503 0.40079,0.3006 0.60124,0.4509 -4e-5,0.2506 0.0501,0.451 0.15031,0.6013 0.15027,0.1002 0.22542,0.3256 0.22546,0.6764 m 4.80986,6.3881 c -3e-5,0.4008 -0.12529,0.7766 -0.37577,1.1273 -0.25055,0.3507 -0.60127,0.5261 -1.05215,0.526 -0.25056,10e-5 -0.55117,-0.1002 -0.90185,-0.3006 -0.35076,-0.2505 -0.60127,-0.4509 -0.75155,-0.6012 -3e-5,-0.1503 -0.0251,-0.3006 -0.0752,-0.4509 -4e-5,-0.1503 -4e-5,-0.3006 0,-0.451 l 0,-0.4509 c 0.50099,-0.501 1.05212,-0.7515 1.65339,-0.7515 0.10017,0 0.22543,0.025 0.37577,0.075 0.15027,0 0.27553,0 0.37577,0 0.15027,0.1504 0.27553,0.3007 0.37577,0.451 0.15027,0.1503 0.27553,0.3006 0.37577,0.4509 l 0,0.3758 m 4.88502,6.839 c -0.15035,0.2505 -0.25055,0.476 -0.30061,0.6764 -5e-5,0.2004 -0.1253,0.4258 -0.37577,0.6764 -0.25056,0 -0.47602,0.025 -0.67639,0.075 -0.15035,0.05 -0.35076,0.075 -0.60123,0.075 -0.40087,-0.2004 -0.72653,-0.4009 -0.97701,-0.6013 -0.25055,-0.2004 -0.37581,-0.5511 -0.37577,-1.0521 -4e-5,-0.3507 0.12522,-0.7015 0.37577,-1.0522 l 1.50309,-0.6764 c 0.60119,0.4009 1.07716,1.0271 1.42792,1.8789 m -23.5984,-20.3668 c -0.20043,0.2004 -0.32569,0.3507 -0.37577,0.4509 -2e-5,0.05 -0.0501,0.2005 -0.15031,0.451 -0.35074,0.2505 -0.70146,0.3757 -1.05216,0.3757 -0.75156,0 -1.37784,-0.3006 -1.87885,-0.9018 l 0,-0.6764 c -2e-5,-0.3507 -0.0251,-0.6263 -0.0752,-0.8267 0.40081,-0.05 0.65132,-0.1753 0.75155,-0.3758 0.10018,-0.2505 0.42585,-0.3757 0.977,-0.3757 0.55111,0 1.05214,0.2254 1.50308,0.6763 l 0,0.3007 c 0.10019,0.2004 0.17534,0.3507 0.22547,0.4509 0.0501,0.05 0.0751,0.2004 0.0751,0.4509 m -4.80987,7.1397 c -0.30063,0.2004 -0.6263,0.4008 -0.977,0.6012 -0.35073,0.2004 -0.7265,0.3006 -1.12731,0.3006 -0.15032,0 -0.30063,-0.025 -0.45093,-0.075 -0.15032,-0.05 -0.30063,-0.1001 -0.45092,-0.1503 -0.15032,-0.2004 -0.22548,-0.4258 -0.22546,-0.6763 -0.10022,-0.05 -0.22548,-0.075 -0.37578,-0.075 -0.15032,0 -0.27557,0 -0.37577,0 0.2004,-0.2505 0.35071,-0.4259 0.45093,-0.5261 0.10019,-0.1002 0.1503,-0.1753 0.15031,-0.2254 0.0501,-0.1002 0.0751,-0.2004 0.0752,-0.3007 -1e-5,-0.1002 0.0501,-0.3006 0.15031,-0.6012 0.3006,-0.1002 0.55112,-0.2254 0.75154,-0.3758 0.2004,-0.1503 0.50102,-0.2505 0.90185,-0.3006 0.3006,0.1002 0.55112,0.2756 0.75154,0.5261 0.2004,0.2004 0.42586,0.4259 0.67639,0.6764 l 0,0.3006 c -2e-5,0.1503 -2e-5,0.3006 0,0.4509 0.0501,0.1503 0.0751,0.3007 0.0752,0.451 m -5.03532,5.7117 c -10e-6,0.2505 -0.0752,0.4008 -0.22547,0.4509 -0.10021,0.05 -0.10021,0.2004 0,0.4509 -0.45093,0.4509 -0.8768,0.7015 -1.27762,0.7516 -0.40083,-0.1002 -0.75155,-0.2004 -1.05216,-0.3007 -0.25052,-0.1002 -0.52608,-0.3006 -0.82669,-0.6012 l 0,-0.5261 c -1e-5,-1.1523 0.57617,-1.7285 1.72854,-1.7285 0.25051,0 0.52607,0.05 0.8267,0.1503 0.1002,0.4008 0.2505,0.6263 0.45092,0.6764 0.25051,0.05 0.37577,0.2756 0.37578,0.6764 m -4.88502,7.7408 c -0.25052,0.2506 -0.50104,0.5261 -0.75155,0.8267 -0.20041,0.3508 -0.50103,0.5261 -0.90185,0.5261 -0.25051,0 -0.47598,-0.05 -0.67638,-0.1503 -0.15031,-0.05 -0.35073,-0.075 -0.60124,-0.075 -0.1002,-0.2506 -0.22546,-0.5011 -0.37577,-0.7516 -0.1002,-0.2505 -0.15031,-0.501 -0.15031,-0.7515 0,-0.2505 0.025,-0.4509 0.0752,-0.6013 0.0501,-0.2004 0.0501,-0.4008 0,-0.6012 0.25051,-0.05 0.47597,-0.1252 0.67639,-0.2255 0.2004,-0.1002 0.42587,-0.1503 0.67638,-0.1503 0.25051,0 0.47598,0.075 0.67639,0.2255 0.25051,0.1503 0.50102,0.2756 0.75154,0.3758 0.1002,0.2505 0.20041,0.4759 0.30062,0.6764 0.1002,0.2004 0.2004,0.4258 0.30062,0.6763"
         id="path4282"
         inkscape:connector-curvature="0" />
      <path
         d="m 349.08118,1108.6155 c -4e-5,0.4008 -0.20045,0.7766 -0.60123,1.1273 -0.40087,0.3507 -0.80169,0.5261 -1.20247,0.526 l -0.45092,0 c -0.20045,-0.2504 -0.37581,-0.4759 -0.52608,-0.6763 -0.15035,-0.2505 -0.30066,-0.501 -0.45093,-0.7516 0.10017,-0.3005 0.15027,-0.4759 0.15031,-0.5261 0.0501,-0.1001 0.025,-0.3005 -0.0752,-0.6012 0.7515,-0.3507 1.42789,-0.5511 2.02916,-0.6012 0.40078,0.4008 0.72645,0.6514 0.977,0.7515 0.10017,0.4009 0.15027,0.6514 0.15031,0.7516 m -6.53841,0.075 0,0.4509 c -0.35076,0.1504 -0.55117,0.4009 -0.60123,0.7516 -0.20045,0.05 -0.40086,0.1002 -0.60124,0.1503 -0.15034,0.05 -0.35075,0.075 -0.60123,0.075 -0.15034,10e-5 -0.30065,-0.025 -0.45092,-0.075 -0.15035,-0.05 -0.32571,-0.075 -0.52608,-0.075 -4e-5,-0.2504 -0.0501,-0.4508 -0.15031,-0.6012 -0.0501,-0.2004 -0.0752,-0.4008 -0.0752,-0.6012 -4e-5,-0.3507 0.15027,-0.6513 0.45092,-0.9019 0.35068,-0.3005 0.6513,-0.526 0.90185,-0.6764 0.25048,0.05 0.42584,0.1253 0.52608,0.2255 0.10017,0.1002 0.27553,0.1002 0.52608,0 0.10017,0.2005 0.22542,0.4009 0.37577,0.6012 0.15027,0.2005 0.22542,0.4259 0.22546,0.6764 m -6.23779,0.075 -1.05216,1.503 c -0.30065,-0.05 -0.55116,-0.075 -0.75154,-0.075 -0.20044,0 -0.3758,0 -0.52608,0 -0.15034,-0.05 -0.30065,-0.1252 -0.45093,-0.2255 -0.15033,-0.1502 -0.35074,-0.4007 -0.60123,-0.7515 l 0,-0.6012 c -3e-5,-0.2004 0.025,-0.3507 0.0752,-0.451 0.0501,-0.1001 0.12523,-0.2254 0.22547,-0.3757 0.20038,-0.2004 0.40079,-0.3507 0.60123,-0.451 0.25048,-0.1001 0.501,-0.2003 0.75154,-0.3006 0.25048,0.1504 0.4509,0.3007 0.60123,0.4509 0.15028,0.1504 0.35069,0.2506 0.60124,0.3007 l 0.52608,0.977 m -7.36511,-0.6764 c -2e-5,0.5512 -0.15033,1.0271 -0.45093,1.4279 -0.25053,0.4009 -0.67641,0.6013 -1.27762,0.6012 l -0.67638,0 c -0.35074,-0.5009 -0.5261,-0.9769 -0.52608,-1.4279 l 0,-0.6012 c 0.30059,-0.2505 0.47595,-0.4509 0.52608,-0.6013 0.10018,-0.2003 0.37575,-0.3005 0.82669,-0.3006 0.3507,10e-5 0.62626,0.1003 0.8267,0.3006 0.25049,0.1504 0.501,0.3508 0.75154,0.6013 m -6.68872,0.5261 c -2e-5,0.501 -0.0752,0.9019 -0.22546,1.2024 -0.15033,0.3007 -0.50105,0.451 -1.05216,0.4509 -0.25053,10e-5 -0.47599,-0.05 -0.67639,-0.1503 -0.20042,-0.1502 -0.42589,-0.3005 -0.67639,-0.4509 -0.0501,-0.1001 -0.10022,-0.2003 -0.1503,-0.3006 -0.0501,-0.1503 -0.0752,-0.3006 -0.0752,-0.4509 -10e-6,-0.4509 0.17535,-0.8016 0.52608,-1.0522 0.40081,-0.2504 0.80163,-0.3757 1.20247,-0.3758 0.10019,10e-5 0.20039,0.025 0.30061,0.075 0.1503,10e-5 0.3006,10e-5 0.45093,0 0.0501,0.2005 0.12524,0.3758 0.22546,0.5261 0.10019,0.1503 0.15029,0.3257 0.15031,0.5261 m 19.76554,26.0033 c -3e-5,0.1503 -0.0501,0.3257 -0.15031,0.5261 -0.40085,0.4008 -0.72652,0.6513 -0.977,0.7515 -0.20045,0.05 -0.57622,0.1002 -1.12731,0.1503 -0.25055,-0.2004 -0.40086,-0.4008 -0.45093,-0.6012 -0.0501,-0.2505 -0.20044,-0.476 -0.45092,-0.6764 l 0.67639,-1.3528 0.45092,0 c 0.10017,-0.05 0.22543,-0.1002 0.37577,-0.1503 0.15027,-0.1002 0.30058,-0.1503 0.45093,-0.1503 0.10017,0 0.30058,0.05 0.60123,0.1503 0.10017,0.2506 0.22542,0.476 0.37577,0.6764 0.15027,0.2004 0.22543,0.4259 0.22546,0.6764 m -25.92818,-25.6276 c -0.10022,0.2506 -0.20042,0.4761 -0.30062,0.6764 -0.10021,0.1504 -0.15032,0.3758 -0.15031,0.6764 l -0.45092,0 c -0.10022,0.1003 -0.17537,0.2255 -0.22546,0.3758 -1e-5,0.1002 -0.0501,0.2004 -0.15031,0.3006 -0.40083,-0.1002 -0.87681,-0.2505 -1.42793,-0.4509 -0.50104,-0.2505 -0.75155,-0.6513 -0.75154,-1.2025 -10e-6,-0.4509 0.1503,-0.8016 0.45092,-1.0522 0.30061,-0.3005 0.65133,-0.4508 1.05216,-0.4509 0.2004,10e-5 0.45092,0.05 0.75154,0.1503 0.1002,0.2506 0.27556,0.4259 0.52608,0.5261 0.2505,0.1003 0.47597,0.2506 0.67639,0.4509 m 19.38977,25.7027 c -3e-5,0.3007 -0.10024,0.5763 -0.30062,0.8267 -0.15033,0.2005 -0.35075,0.3758 -0.60123,0.5261 l -0.30062,-0.1503 c -0.10023,0 -0.17538,0.025 -0.22546,0.075 -3e-5,0 -0.0501,0 -0.15031,0 -0.40085,0 -0.72651,-0.1503 -0.977,-0.451 -0.20044,-0.3005 -0.30064,-0.6513 -0.30062,-1.0521 -2e-5,-0.501 0.20039,-0.9018 0.60124,-1.2025 0.25048,0 0.62625,-0.05 1.12731,-0.1503 0.30059,0.1503 0.5511,0.3508 0.75154,0.6012 0.25048,0.2506 0.37574,0.5763 0.37577,0.977 m -20.66739,-19.9158 c -10e-6,0.2506 -0.0251,0.476 -0.0752,0.6764 -0.0501,0.2004 -0.10021,0.4009 -0.1503,0.6012 l -0.67639,0 c -0.15032,10e-5 -0.35073,0.1253 -0.60124,0.3758 -0.80165,-0.3507 -1.35278,-0.9269 -1.65339,-1.7286 0.25051,-0.2003 0.50102,-0.4007 0.75155,-0.6012 0.3006,-0.2004 0.55112,-0.4258 0.75154,-0.6764 0.35071,0.05 0.70143,0.1754 1.05215,0.3758 0.40082,0.2004 0.60123,0.5261 0.60124,0.977 m 0.90185,6.2378 c -0.25053,0.3507 -0.45094,0.7766 -0.60124,1.2776 -0.25052,-0.05 -0.50103,-0.05 -0.75154,0 -0.20042,0.05 -0.42588,0.075 -0.67638,0.075 -0.35073,0 -0.6263,-0.075 -0.8267,-0.2255 -0.10021,-0.2505 -0.22547,-0.4759 -0.37577,-0.6764 -0.15032,-0.2004 -0.22547,-0.4258 -0.22546,-0.6764 -10e-6,-0.1001 0.0501,-0.3005 0.15031,-0.6012 0.2004,-0.2004 0.42586,-0.3507 0.67638,-0.4509 0.25051,-0.1002 0.47597,-0.2505 0.67639,-0.451 0.35071,0.05 0.62628,0.1504 0.8267,0.3007 0.2004,0.1002 0.42586,0.2255 0.67638,0.3757 0.1002,0.2005 0.17535,0.4009 0.22547,0.6013 0.0501,0.1503 0.12524,0.3006 0.22546,0.4509 m 12.32528,13.3023 c -0.15033,0.4509 -0.35074,0.8768 -0.60123,1.2776 -0.20044,0.4008 -0.60126,0.6013 -1.20247,0.6012 -0.20043,-0.1002 -0.42589,-0.1753 -0.67639,-0.2254 -0.20043,-0.05 -0.37579,-0.1503 -0.52608,-0.3007 -0.15033,-0.3005 -0.22548,-0.6262 -0.22546,-0.977 -2e-5,-0.1502 0.025,-0.2755 0.0751,-0.3757 0.0501,-0.1002 0.10019,-0.2255 0.15031,-0.3758 l 0.97701,-0.7515 0.75154,-0.075 c 0.20039,0.2004 0.4008,0.4009 0.60123,0.6012 0.25049,0.1504 0.47596,0.3508 0.67639,0.6013 m -12.02467,-6.6136 c -0.10021,0.4009 -0.25052,0.7516 -0.45092,1.0522 -0.20042,0.3006 -0.27558,0.6764 -0.22546,1.1273 -0.25053,0 -0.47599,0 -0.67639,0 -0.20042,-0.05 -0.40083,-0.075 -0.60123,-0.075 -0.0501,10e-5 -0.12527,0.025 -0.22547,0.075 -0.10021,0 -0.15031,0.025 -0.1503,0.075 -0.25053,-0.2003 -0.42589,-0.3256 -0.52608,-0.3757 -0.10022,-0.1002 -0.30063,-0.2004 -0.60124,-0.3007 0,-0.2003 0,-0.3506 0,-0.4509 0.0501,-0.1503 0.1002,-0.3256 0.15031,-0.5261 -10e-6,-0.05 -0.0501,-0.1753 -0.15031,-0.3757 0.20041,-0.2505 0.42587,-0.476 0.67639,-0.6764 0.30061,-0.2505 0.65133,-0.3758 1.05216,-0.3758 0.35071,0 0.65133,0.1754 0.90185,0.5261 l 0.82669,0.3006 m 4.80987,7.3651 c -0.45094,0.7015 -1.05217,1.0522 -1.8037,1.0522 -0.20042,0 -0.50104,-0.05 -0.90185,-0.1503 -0.0501,-0.2004 -0.12527,-0.3758 -0.22546,-0.5261 -0.10022,-0.1503 -0.15032,-0.3507 -0.15031,-0.6012 l 0,-0.3758 c 0.10019,-0.2505 0.2004,-0.4509 0.30062,-0.6013 0.15029,-0.2003 0.22545,-0.4258 0.22546,-0.6763 0.40081,0 0.77658,0.075 1.12731,0.2254 0.35071,0.1003 0.72648,0.2005 1.12731,0.3006 0.10019,0.2506 0.1503,0.476 0.15031,0.6764 -10e-6,0.2005 0.0501,0.4259 0.15031,0.6764 m 27.50642,28.258 c -0.35076,0.3507 -0.70148,0.5511 -1.05216,0.6012 -0.35076,0.1002 -0.72653,0.2255 -1.12731,0.3758 -0.70148,-0.4509 -1.0522,-1.0271 -1.05216,-1.7286 -4e-5,-0.3006 0.17532,-0.6262 0.52608,-0.977 0.35068,-0.4008 0.7014,-0.6012 1.05216,-0.6012 0.40078,0 0.65129,0.1002 0.75154,0.3006 0.10016,0.1503 0.27552,0.2505 0.52608,0.3006 0.20037,0.3007 0.27552,0.5261 0.22546,0.6764 -4e-5,0.1002 -4e-5,0.3006 0,0.6013 -4e-5,0.2004 0.0501,0.3507 0.15031,0.4509 m -32.69206,-28.7841 c -0.15032,0.3007 -0.32567,0.6263 -0.52608,0.977 -0.15031,0.3007 -0.37578,0.5512 -0.67638,0.7516 -0.25053,0 -0.50104,0.025 -0.75154,0.075 -0.25053,10e-5 -0.50104,10e-5 -0.75155,0 0,-0.3507 -0.10021,-0.5761 -0.30061,-0.6764 -0.20042,-0.1001 -0.30063,-0.3757 -0.30062,-0.8266 -1e-5,-0.2505 0.0752,-0.476 0.22546,-0.6764 0.1503,-0.2505 0.32566,-0.476 0.52608,-0.6764 l 0.30062,0 c 0.1002,0 0.17535,0 0.22546,0 0.1002,-0.05 0.2004,-0.075 0.30062,-0.075 l 0.45092,0 1.27762,1.1273 m 26.37911,28.4835 c -3e-5,0.2004 -0.0501,0.3757 -0.15031,0.526 -0.10024,0.1503 -0.20044,0.3257 -0.30061,0.5261 -0.50107,0.2505 -1.1023,0.3758 -1.8037,0.3758 -0.20045,-0.2004 -0.37581,-0.4008 -0.52608,-0.6012 -0.10024,-0.2005 -0.2255,-0.4009 -0.37577,-0.6013 -4e-5,-0.2505 0.025,-0.476 0.0751,-0.6764 0.0501,-0.2505 0.0751,-0.501 0.0752,-0.7515 0.30058,0 0.47594,-0.075 0.52608,-0.2255 0.0501,-0.1503 0.10017,-0.3507 0.1503,-0.6012 0.501,0.2004 0.85172,0.3507 1.05216,0.4509 0.25048,0.05 0.52604,0.3006 0.8267,0.7516 0.10017,0.1503 0.20037,0.2755 0.30061,0.3757 0.10017,0.1002 0.15028,0.2506 0.15031,0.451 m -26.83003,-22.0954 c -10e-6,0.4009 -0.0501,0.7767 -0.15031,1.1274 -0.10021,0.3006 -0.15032,0.6263 -0.15031,0.977 -0.25052,0.1002 -0.50103,0.2004 -0.75154,0.3006 -0.25052,0.1002 -0.50104,0.1503 -0.75154,0.1503 l -0.75154,0 c -0.10022,-0.4008 -0.22547,-0.6513 -0.37577,-0.7516 -0.10022,-0.1502 -0.15032,-0.501 -0.15031,-1.0521 -10e-6,-0.2505 0.025,-0.4259 0.0752,-0.5261 l 1.65339,-0.977 c 0.25051,0.2004 0.45092,0.3507 0.60124,0.4509 0.2004,0.1003 0.45091,0.2005 0.75154,0.3006 m 20.44193,21.6444 c -0.15034,0.3007 -0.25055,0.5762 -0.30062,0.8267 -3e-5,0.2505 -0.10023,0.5011 -0.30061,0.7516 -0.40086,0.1503 -0.75157,0.2254 -1.05216,0.2254 -0.40085,0 -0.75157,-0.1503 -1.05216,-0.4509 -0.25054,-0.3006 -0.3758,-0.6513 -0.37577,-1.0521 -3e-5,-0.1504 0.0501,-0.3257 0.15031,-0.5261 0.10017,-0.1002 0.22543,-0.2004 0.37577,-0.3006 0.15028,-0.1503 0.27553,-0.3007 0.37577,-0.451 l 0.22546,-0.2254 c 0.75151,0 1.15233,0.075 1.20247,0.2254 0.10017,0.1503 0.35069,0.476 0.75154,0.977 m -20.14131,-14.0538 c -0.10022,0.3507 -0.20043,0.5762 -0.30062,0.6764 -0.10022,0.1002 -0.12527,0.3257 -0.0752,0.6764 -0.25052,0.1002 -0.50103,0.2004 -0.75154,0.3006 -0.25052,0.1002 -0.50103,0.1503 -0.75154,0.1503 -0.15032,0 -0.30062,0 -0.45092,0 -0.15032,-0.05 -0.30063,-0.075 -0.45093,-0.075 -0.10021,-0.2505 -0.22547,-0.476 -0.37577,-0.6764 -0.15031,-0.2004 -0.22547,-0.4509 -0.22546,-0.7516 l 0,-0.4509 c 0.35071,-0.7014 0.80163,-1.0521 1.35277,-1.0522 0.25051,10e-5 0.47597,0.025 0.67639,0.075 0.25051,0.05 0.50102,0.075 0.75154,0.075 0.1002,0.2004 0.17535,0.4008 0.22546,0.6012 0.1002,0.1503 0.22546,0.3006 0.37578,0.4509 m 13.22713,14.4296 c -3e-5,0.4008 -0.12528,0.7766 -0.37577,1.1273 -0.25054,0.3507 -0.60126,0.5261 -1.05216,0.5261 -0.40085,0 -0.77662,-0.1503 -1.12731,-0.4509 -0.30064,-0.2505 -0.45095,-0.6013 -0.45093,-1.0522 -2e-5,-0.4008 0.10019,-0.6764 0.30062,-0.8267 0.20039,-0.2004 0.42585,-0.4259 0.67638,-0.6764 0.4008,0.05 0.75152,0.1253 1.05216,0.2255 0.3507,0.1002 0.65132,0.3006 0.90185,0.6012 0.0501,0.1002 0.0751,0.2756 0.0752,0.5261 m -13.37744,-7.9663 c -0.0501,0.2505 -0.12527,0.501 -0.22547,0.7515 -0.0501,0.2004 -0.17536,0.3758 -0.37577,0.5261 -0.50103,0.2004 -0.90185,0.3006 -1.20246,0.3006 -0.50104,0 -0.85176,-0.1503 -1.05216,-0.4509 -0.15032,-0.3507 -0.25052,-0.7265 -0.30062,-1.1273 0.25051,-0.5011 0.67638,-1.0522 1.27762,-1.6534 0.25051,0.2505 0.47597,0.3758 0.67639,0.3757 0.2004,-0.05 0.42586,0.05 0.67639,0.3007 -10e-6,0.1503 0.0501,0.3256 0.15031,0.526 0.15029,0.05 0.27555,0.2005 0.37577,0.451 m 6.76387,8.793 c -0.40084,0.1002 -0.70145,0.2255 -0.90185,0.3758 -0.15032,0.1503 -0.42589,0.2254 -0.82669,0.2254 -0.35074,0 -0.6263,-0.1002 -0.8267,-0.3006 -0.10022,-0.2004 -0.22548,-0.3758 -0.37577,-0.5261 -0.10022,-0.1503 -0.15032,-0.3507 -0.15031,-0.6012 -1e-5,-0.2004 0.025,-0.3758 0.0752,-0.5261 0.1002,-0.1503 0.17535,-0.3006 0.22547,-0.4509 0.2505,-0.1503 0.47596,-0.3006 0.67638,-0.4509 0.2505,-0.2004 0.55112,-0.3006 0.90185,-0.3006 0.30061,0 0.52607,0.025 0.67639,0.075 0.0501,0.3507 0.15029,0.5762 0.30062,0.6764 0.15029,0.05 0.22544,0.2004 0.22546,0.4509 -2e-5,0.1503 -0.0501,0.3006 -0.15031,0.451 -0.0501,0.1002 -0.0752,0.2004 -0.0752,0.3006 -2e-5,0.1002 0.025,0.2004 0.0752,0.3006 0.0501,0.1002 0.10019,0.2004 0.15031,0.3006 m -7.36511,-1.7285 c -0.0501,0.9018 -0.45093,1.6032 -1.20246,2.1043 -0.30063,-0.2004 -0.65135,-0.2505 -1.05216,-0.1503 -0.15032,-0.1503 -0.30062,-0.3257 -0.45093,-0.5261 -0.10021,-0.2004 -0.25052,-0.3507 -0.45092,-0.4509 l 0,-0.5261 c -10e-6,-0.2004 0.025,-0.3758 0.0752,-0.5261 0.0501,-0.1503 0.0752,-0.3006 0.0752,-0.4509 0.2505,-0.1503 0.50102,-0.2756 0.75154,-0.3758 0.30061,-0.1002 0.57617,-0.2505 0.82669,-0.4509 0.45092,0.2004 0.70143,0.4259 0.75155,0.6764 0.10019,0.2004 0.32566,0.4258 0.67638,0.6764"
         id="path4284"
         inkscape:connector-curvature="0" />
      <path
         d="m 363.73624,1108.6155 c -1e-5,0.4008 -0.15032,0.7515 -0.45092,1.0521 -0.30063,0.2506 -0.6263,0.3758 -0.97701,0.3758 -0.25052,0 -0.50103,-0.05 -0.75154,-0.1503 -0.20042,-0.1503 -0.42588,-0.3006 -0.67639,-0.451 -0.10021,-0.2003 -0.17536,-0.3757 -0.22546,-0.526 -0.0501,-0.1503 -0.0752,-0.3256 -0.0752,-0.5261 -1e-5,-0.5511 0.27555,-0.9519 0.82669,-1.2025 0.60123,-0.2504 1.10225,-0.4258 1.50308,-0.5261 0.1002,0.1504 0.20041,0.3508 0.30062,0.6013 0.1503,0.2004 0.27556,0.3257 0.37577,0.3757 0.0501,0.2005 0.0752,0.3759 0.0752,0.5261 0.0501,0.1504 0.0751,0.3007 0.0752,0.451 m -0.15031,8.1166 c -0.40083,0.3007 -0.70145,0.5762 -0.90185,0.8267 -0.15031,0.2005 -0.50103,0.3007 -1.05216,0.3006 -0.15031,10e-5 -0.37577,-0.1502 -0.67638,-0.4509 -0.30063,-0.3006 -0.45093,-0.5511 -0.45093,-0.7516 -0.0501,-0.6011 0.025,-1.1022 0.22546,-1.503 0.20041,-0.4509 0.57618,-0.6764 1.12732,-0.6764 0.45091,0 0.75153,0.1253 0.90185,0.3757 0.2004,0.2005 0.42586,0.426 0.67638,0.6764 l 0,0.3758 c -10e-6,0.1003 0.0251,0.2506 0.0752,0.4509 0.0501,0.1504 0.0751,0.2756 0.0752,0.3758 m 0.15031,7.0645 c -0.10021,0.5512 -0.22547,0.977 -0.37577,1.2776 -0.10022,0.2506 -0.32568,0.5011 -0.67639,0.7516 -0.30062,0 -0.60124,0 -0.90185,0 -0.30062,-0.05 -0.60124,-0.1002 -0.90185,-0.1504 -0.10021,-0.4007 -0.20042,-0.7515 -0.30061,-1.0521 -0.0501,-0.3507 -0.12527,-0.7265 -0.22547,-1.1273 0.0501,0 0.12525,0 0.22547,0 0.10019,0 0.17535,-0.025 0.22546,-0.075 0.1503,-0.2505 0.27556,-0.4258 0.37577,-0.5261 0.1503,-0.1502 0.40081,-0.2254 0.75154,-0.2254 0.50102,0 0.85174,0.05 1.05216,0.1503 0.2505,0.1002 0.50102,0.4259 0.75154,0.977 m 34.2703,39.005 c -0.10025,0.3006 -0.32572,0.6513 -0.67639,1.0522 -0.30066,0.4509 -0.62633,0.6763 -0.97701,0.6763 -0.20045,0 -0.40086,-0.05 -0.60123,-0.1503 -0.15035,-0.05 -0.32571,-0.075 -0.52608,-0.075 -0.15035,-0.2505 -0.30066,-0.5261 -0.45092,-0.8267 -0.15035,-0.2505 -0.22551,-0.501 -0.22547,-0.7516 -4e-5,-0.2505 0.10017,-0.501 0.30062,-0.7515 0.20037,-0.2505 0.37573,-0.4509 0.52608,-0.6012 0.10016,0 0.20037,0 0.30062,0 0.15026,-0.05 0.30057,-0.075 0.45092,-0.075 0.25047,0 0.45088,0.05 0.60123,0.1503 0.20037,0.1002 0.42583,0.1503 0.67639,0.1503 0.0501,0.4009 0.25047,0.8017 0.60124,1.2025 m -34.57092,-31.3393 c -10e-6,0.5512 -0.0501,0.9269 -0.1503,1.1273 -0.0501,0.1504 -0.22548,0.476 -0.52608,0.977 -0.60125,10e-5 -1.25258,-0.1753 -1.95401,-0.526 -0.10021,-0.2004 -0.20042,-0.3758 -0.30062,-0.5261 -0.0501,-0.2004 -0.0752,-0.4008 -0.0752,-0.6013 l 0,-0.526 c 0.2505,-0.2505 0.50102,-0.4509 0.75154,-0.6013 0.30061,-0.2003 0.62628,-0.3006 0.977,-0.3006 0.20041,0 0.45092,0.05 0.75154,0.1503 0.0501,0.1504 0.1002,0.3257 0.15031,0.5261 0.0501,0.1503 0.17535,0.2505 0.37577,0.3006 m 28.40827,32.2411 c -0.40086,0.1003 -0.65137,0.1754 -0.75154,0.2255 -0.0501,0.05 -0.2255,0.1754 -0.52608,0.3758 -0.90188,-0.1002 -1.55322,-0.476 -1.954,-1.1273 0.0501,-0.4009 0.17532,-0.8768 0.37577,-1.428 0.45089,-0.4509 0.92686,-0.6763 1.42793,-0.6763 0.35068,0 0.60119,0.1503 0.75154,0.4509 0.20037,0.2505 0.37573,0.501 0.52608,0.7515 l 0,0.8267 c -4e-5,0.1002 0.0501,0.3006 0.1503,0.6012 m -28.0325,-23.8238 c -10e-6,0.2505 -0.0752,0.476 -0.22546,0.6764 -0.10021,0.2004 -0.15032,0.4259 -0.15031,0.6764 -0.30062,0.1002 -0.60124,0.1753 -0.90185,0.2254 -0.30062,0.05 -0.62629,0.1002 -0.977,0.1503 -0.25052,-0.2505 -0.47598,-0.526 -0.67639,-0.8267 -0.20042,-0.3507 -0.30062,-0.7264 -0.30061,-1.1273 -1e-5,-0.1002 -1e-5,-0.2004 0,-0.3006 0.0501,-0.1503 0.0751,-0.2755 0.0752,-0.3758 0.25051,-0.2004 0.50102,-0.3507 0.75154,-0.4509 0.25051,-0.1002 0.42587,-0.3006 0.52608,-0.6012 l 1.42793,0.7515 c 0.30061,0.4009 0.45091,0.8017 0.45092,1.2025 m 21.71956,22.8468 c -4e-5,0.2005 -0.0251,0.3758 -0.0752,0.5261 -0.0501,0.1503 -0.0752,0.3257 -0.0751,0.5261 -0.20045,0.1002 -0.40086,0.2004 -0.60124,0.3006 -0.15034,0.1503 -0.35075,0.2255 -0.60123,0.2255 -0.40085,0 -0.77662,-0.1002 -1.12731,-0.3006 -0.30065,-0.2004 -0.45096,-0.5261 -0.45093,-0.977 -3e-5,-0.3508 0.0501,-0.6514 0.15031,-0.9019 0.15028,-0.2505 0.27554,-0.5762 0.37577,-0.977 0.30059,0.1002 0.52605,0.1503 0.67639,0.1503 0.10018,0 0.22543,-0.025 0.37577,-0.075 0.20038,-0.1002 0.35069,-0.1754 0.45093,-0.2255 0.15027,0.2505 0.32563,0.5261 0.52607,0.8267 0.25049,0.3006 0.37574,0.6012 0.37578,0.9018 m -6.68872,-0.2254 c -3e-5,0.2004 -0.0251,0.3758 -0.0752,0.5261 -0.0501,0.1503 -0.10023,0.3256 -0.15031,0.526 -0.15033,0.1503 -0.32569,0.2506 -0.52608,0.3007 -0.20043,0.1002 -0.30064,0.2755 -0.30061,0.526 l -1.57824,-0.3757 c -0.15033,-0.2505 -0.30064,-0.476 -0.45092,-0.6764 -0.10023,-0.2505 -0.12528,-0.501 -0.0752,-0.7516 l 0,-0.526 c 0.25049,-0.2506 0.52606,-0.476 0.8267,-0.6764 0.35069,-0.2004 0.72646,-0.3006 1.12731,-0.3006 0.20039,0 0.501,0.05 0.90185,0.1503 0.10018,0.2505 0.17533,0.4759 0.22546,0.6763 0.0501,0.1504 0.0751,0.3508 0.0752,0.6013 m -15.03084,-15.6321 c -10e-6,0.3007 -0.0251,0.6013 -0.0752,0.9019 -10e-6,0.3006 -0.0251,0.6012 -0.0752,0.9018 -0.20042,0.2004 -0.42589,0.4009 -0.67639,0.6013 -0.20042,0.1503 -0.45093,0.2254 -0.75154,0.2254 -0.55114,0 -0.92691,-0.1753 -1.12731,-0.5261 -0.15032,-0.3507 -0.37578,-0.5761 -0.67639,-0.6764 l 0,-0.4509 c -1e-5,-0.2505 0.0501,-0.4759 0.15031,-0.6764 0.1503,-0.2004 0.2505,-0.4258 0.30061,-0.6764 0.25051,-0.05 0.50102,-0.075 0.75154,-0.075 0.25051,-0.05 0.47597,-0.1753 0.67639,-0.3758 0.25051,0.1002 0.50102,0.2756 0.75154,0.5261 0.25051,0.2004 0.50102,0.3006 0.75154,0.3006 m 7.81604,15.8575 c -2e-5,0.1003 -0.0251,0.2005 -0.0752,0.3007 -2e-5,0.1002 -2e-5,0.2004 0,0.3006 -0.25053,0.2004 -0.47599,0.4008 -0.67638,0.6012 -0.20043,0.2004 -0.476,0.3006 -0.8267,0.3006 -0.40084,0 -0.75156,-0.2004 -1.05216,-0.6012 -0.30063,-0.3507 -0.45094,-0.7265 -0.45092,-1.1273 -2e-5,-0.501 0.20039,-0.9019 0.60123,-1.2025 0.15029,0 0.3006,-0.025 0.45092,-0.075 0.2004,-0.05 0.40081,-0.075 0.60124,-0.075 l 0.67639,0 c 0.15029,0.2505 0.30059,0.501 0.45092,0.7515 0.20039,0.2005 0.3006,0.476 0.30062,0.8267 m -7.81604,-6.4632 c -0.25052,0.2505 -0.50103,0.5261 -0.75154,0.8267 -0.25052,0.2505 -0.57619,0.3758 -0.977,0.3758 -0.30063,0 -0.60124,-0.1002 -0.90185,-0.3007 -0.30062,-0.2004 -0.50104,-0.4509 -0.60123,-0.7515 -10e-6,-0.2505 -10e-6,-0.5511 0,-0.9019 0.0501,-0.3507 0.22545,-0.5761 0.52608,-0.6763 0.2505,-0.2004 0.47596,-0.3508 0.67638,-0.451 0.20041,-0.1503 0.47597,-0.2254 0.8267,-0.2254 0.45091,0.2505 0.72648,0.5762 0.82669,0.977 0.1002,0.3507 0.22546,0.7265 0.37577,1.1273 m -0.37577,7.8912 c -0.25052,0.1002 -0.50103,0.2254 -0.75154,0.3757 -0.25052,0.2005 -0.52609,0.3007 -0.82669,0.3007 -0.40083,0 -0.75155,-0.1754 -1.05216,-0.5261 -0.25052,-0.3507 -0.37578,-0.7265 -0.37577,-1.1273 -10e-6,-0.3507 0.12525,-0.6514 0.37577,-0.9019 0.25051,-0.2505 0.47597,-0.501 0.67639,-0.7515 0.40081,0.1002 0.72648,0.2004 0.977,0.3006 0.30061,0.05 0.60122,0.2004 0.90185,0.4509 -1e-5,0.3006 -1e-5,0.6263 0,0.977 0.0501,0.3006 0.0751,0.6013 0.0751,0.9019"
         id="path4286"
         inkscape:connector-curvature="0" />
    </g>
  </g>
</svg>
